<svg width="32" height="32" viewBox="0 0 32 32" fill="none" xmlns="http://www.w3.org/2000/svg">
<g clip-path="url(#clip0_921_9)">
<path fill-rule="evenodd" clip-rule="evenodd" d="M16 2.66667C8.6362 2.66667 2.66667 8.6362 2.66667 16C2.66667 23.3638 8.6362 29.3333 16 29.3333C23.3638 29.3333 29.3333 23.3638 29.3333 16C29.3333 8.6362 23.3638 2.66667 16 2.66667ZM0 16C0 7.16347 7.16347 0 16 0C24.8365 0 32 7.16347 32 16C32 24.8365 24.8365 32 16 32C7.16347 32 0 24.8365 0 16Z" fill="black"/>
<path fill-rule="evenodd" clip-rule="evenodd" d="M12.7889 30.3144C12.6599 30.148 12.6599 28.6649 12.7889 25.8654C11.4076 25.9131 10.5349 25.8172 10.1709 25.5778C9.62466 25.2187 9.07793 24.1111 8.59273 23.3306C8.1076 22.5501 7.03086 22.4267 6.59603 22.2522C6.16121 22.0777 6.05206 21.3664 7.7942 21.9043C9.53627 22.4423 9.62126 23.9072 10.1709 24.2497C10.7204 24.5922 12.0343 24.4424 12.6299 24.168C13.2255 23.8936 13.1816 22.8719 13.2878 22.4671C13.4221 22.0893 12.9489 22.0056 12.9385 22.0025C12.357 22.0025 9.3026 21.3382 8.46367 18.3804C7.62467 15.4227 8.7054 13.4894 9.28193 12.6583C9.66633 12.1043 9.63233 10.9235 9.17993 9.11582C10.8223 8.90595 12.0898 9.42288 12.9823 10.6667C12.9831 10.6739 14.1523 9.97148 16.0002 9.97148C17.848 9.97148 18.5035 10.5436 19.0095 10.6667C19.5154 10.7899 19.92 8.48942 23.0445 9.11582C22.3922 10.398 21.8459 12.0001 22.2629 12.6583C22.6799 13.3166 24.3163 15.4098 23.3111 18.3804C22.6409 20.3609 21.3235 21.5682 19.3589 22.0025C19.1337 22.0744 19.021 22.1904 19.021 22.3504C19.021 22.5904 19.3256 22.6166 19.7643 23.7411C20.0569 24.4908 20.078 26.632 19.8277 30.1647C19.1937 30.3261 18.7005 30.4344 18.3481 30.4898C17.7231 30.588 17.0446 30.6431 16.3779 30.6643C15.7113 30.6856 15.4797 30.6832 14.558 30.5974C13.9436 30.5402 13.3539 30.4459 12.7889 30.3144Z" fill="black"/>
</g>
<defs>
<clipPath id="clip0_921_9">
<rect width="32" height="32" fill="white"/>
</clipPath>
</defs>
</svg>
