<svg width="32" height="33" viewBox="0 0 32 33" fill="none" xmlns="http://www.w3.org/2000/svg">
<path d="M25.98 27.372L17.6307 19.0227C16.964 19.5907 16.1973 20.0302 15.3307 20.3413C14.464 20.6524 13.5929 20.808 12.7173 20.808C10.5822 20.808 8.77511 20.0689 7.296 18.5907C5.81689 17.1116 5.07733 15.3049 5.07733 13.1707C5.07733 11.0364 5.816 9.22888 7.29333 7.748C8.77155 6.26622 10.5778 5.52533 12.712 5.52533C14.8471 5.52533 16.6551 6.26489 18.136 7.744C19.6169 9.22311 20.3573 11.0307 20.3573 13.1667C20.3573 14.0929 20.1933 14.9893 19.8653 15.856C19.5364 16.7227 19.1053 17.464 18.572 18.08L26.9213 26.428L25.98 27.372ZM12.7173 19.4733C14.4862 19.4733 15.98 18.8644 17.1987 17.6467C18.4164 16.4289 19.0253 14.9351 19.0253 13.1653C19.0253 11.3964 18.4164 9.90311 17.1987 8.68533C15.9809 7.46755 14.4876 6.85866 12.7187 6.85866C10.9498 6.85866 9.456 7.46755 8.23733 8.68533C7.01955 9.90311 6.41066 11.3964 6.41066 13.1653C6.41066 14.9342 7.01955 16.4276 8.23733 17.6453C9.45511 18.8631 10.9484 19.4733 12.7173 19.4733Z" fill="black"/>
</svg>
